HIERARCHY
ROOT Hips
{
  OFFSET 5.84602e-005 68.8428 3.50346
  CHANNELS 6 Xposition Yposition Zposition Zrotation Xrotation Yrotation
  JOINT Spine
  {
    OFFSET 0 8.597 -4.6522
    CHANNELS 3 Zrotation Xrotation Yrotation
    JOINT Spine1
    {
      OFFSET 0 7.8454 0.4098
      CHANNELS 3 Zrotation Xrotation Yrotation
      JOINT Spine2
      {
        OFFSET 0 9.7078 -2.1609
        CHANNELS 3 Zrotation Xrotation Yrotation
        JOINT Neck
        {
          OFFSET 0 21.8761 -0.4549
          CHANNELS 3 Zrotation Xrotation Yrotation
          JOINT Head
          {
            OFFSET 0 12.3537 3.3602
            CHANNELS 3 Zrotation Xrotation Yrotation
            End Site
            {
              OFFSET 0.0001 18.9506 0.5657
            }
          }
        }
        JOINT LeftShoulder
        {
          OFFSET 2.2086 21.1115 7.2329
          CHANNELS 3 Zrotation Xrotation Yrotation
          JOINT LeftArm
          {
            OFFSET 13.1193 3.0282 -4.8998
            CHANNELS 3 Zrotation Xrotation Yrotation
            JOINT LeftForeArm
            {
              OFFSET 27.4081 -0.0973053 -0.2375
              CHANNELS 3 Zrotation Xrotation Yrotation
              JOINT LeftHand
              {
                OFFSET 22.8641 0.0662994 -0.1369
                CHANNELS 3 Zrotation Xrotation Yrotation
                JOINT LeftHandIndex1
                {
                  OFFSET 8.8614 0.775009 2.4612
                  CHANNELS 3 Zrotation Xrotation Yrotation
                  JOINT LeftHandIndex2
                  {
                    OFFSET 3.3146 -0.808304 0.5841
                    CHANNELS 3 Zrotation Xrotation Yrotation
                    JOINT LeftHandIndex3
                    {
                      OFFSET 2.2628 -0.552002 0.3989
                      CHANNELS 3 Zrotation Xrotation Yrotation
                      End Site
                      {
                        OFFSET 1.6102 -0.4807 0.2612
                      }
                    }
                  }
                }
                JOINT LeftHandMiddle1
                {
                  OFFSET 8.9937 0.895004 0.2143
                  CHANNELS 3 Zrotation Xrotation Yrotation
                  JOINT LeftHandMiddle2
                  {
                    OFFSET 4.0984 0.0113983 -0.0242
                    CHANNELS 3 Zrotation Xrotation Yrotation
                    JOINT LeftHandMiddle3
                    {
                      OFFSET 2.2716 0.00689697 -0.0138001
                      CHANNELS 3 Zrotation Xrotation Yrotation
                      End Site
                      {
                        OFFSET 2.0404 -0.1441 0.0027
                      }
                    }
                  }
                }
                JOINT LeftHandRing1
                {
                  OFFSET 8.5234 0.597198 -2.0164
                  CHANNELS 3 Zrotation Xrotation Yrotation
                  JOINT LeftHandRing2
                  {
                    OFFSET 3.7188 -0.188293 -0.2328
                    CHANNELS 3 Zrotation Xrotation Yrotation
                    JOINT LeftHandRing3
                    {
                      OFFSET 2.1191 -0.106598 -0.1332
                      CHANNELS 3 Zrotation Xrotation Yrotation
                      End Site
                      {
                        OFFSET 1.8737 -0.2304 -0.0886
                      }
                    }
                  }
                }
                JOINT LeftHandPinky1
                {
                  OFFSET 7.9094 -0.601089 -3.4825
                  CHANNELS 3 Zrotation Xrotation Yrotation
                  JOINT LeftHandPinky2
                  {
                    OFFSET 2.2874 -0.477005 -0.6314
                    CHANNELS 3 Zrotation Xrotation Yrotation
                    JOINT LeftHandPinky3
                    {
                      OFFSET 1.6774 -0.349396 -0.4633
                      CHANNELS 3 Zrotation Xrotation Yrotation
                      End Site
                      {
                        OFFSET 1.4888 -0.4091 -0.3416
                      }
                    }
                  }
                }
                JOINT LeftHandThumb1
                {
                  OFFSET 1.833 -1.3875 1.3896
                  CHANNELS 3 Zrotation Xrotation Yrotation
                  JOINT LeftHandThumb2
                  {
                    OFFSET 3.4129 -1.121 2.5732
                    CHANNELS 3 Zrotation Xrotation Yrotation
                    JOINT LeftHandThumb3
                    {
                      OFFSET 2.2474 -0.804199 1.6192
                      CHANNELS 3 Zrotation Xrotation Yrotation
                      End Site
                      {
                        OFFSET 1.6527 -0.5689 1.1317
                      }
                    }
                  }
                }
              }
            }
          }
        }
        JOINT RightShoulder
        {
          OFFSET -2.2086 21.1115 7.2329
          CHANNELS 3 Zrotation Xrotation Yrotation
          JOINT RightArm
          {
            OFFSET -13.1216 3.0287 -4.9007
            CHANNELS 3 Zrotation Xrotation Yrotation
            JOINT RightForeArm
            {
              OFFSET -27.4081 -0.0973053 -0.2375
              CHANNELS 3 Zrotation Xrotation Yrotation
              JOINT RightHand
              {
                OFFSET -22.8641 0.0664063 -0.1369
                CHANNELS 3 Zrotation Xrotation Yrotation
                JOINT RightHandIndex1
                {
                  OFFSET -8.8614 0.774994 2.4612
                  CHANNELS 3 Zrotation Xrotation Yrotation
                  JOINT RightHandIndex2
                  {
                    OFFSET -3.3146 -0.808304 0.5841
                    CHANNELS 3 Zrotation Xrotation Yrotation
                    JOINT RightHandIndex3
                    {
                      OFFSET -2.2628 -0.552002 0.3989
                      CHANNELS 3 Zrotation Xrotation Yrotation
                      End Site
                      {
                        OFFSET -1.6102 -0.4807 0.2612
                      }
                    }
                  }
                }
                JOINT RightHandMiddle1
                {
                  OFFSET -8.9937 0.894989 0.2143
                  CHANNELS 3 Zrotation Xrotation Yrotation
                  JOINT RightHandMiddle2
                  {
                    OFFSET -4.0984 0.0113983 -0.0242
                    CHANNELS 3 Zrotation Xrotation Yrotation
                    JOINT RightHandMiddle3
                    {
                      OFFSET -2.2716 0.00691223 -0.0138001
                      CHANNELS 3 Zrotation Xrotation Yrotation
                      End Site
                      {
                        OFFSET -2.0404 -0.1441 0.0027
                      }
                    }
                  }
                }
                JOINT RightHandRing1
                {
                  OFFSET -8.5234 0.597198 -2.0164
                  CHANNELS 3 Zrotation Xrotation Yrotation
                  JOINT RightHandRing2
                  {
                    OFFSET -3.7188 -0.188309 -0.2328
                    CHANNELS 3 Zrotation Xrotation Yrotation
                    JOINT RightHandRing3
                    {
                      OFFSET -2.1191 -0.106598 -0.1332
                      CHANNELS 3 Zrotation Xrotation Yrotation
                      End Site
                      {
                        OFFSET -1.8737 -0.2304 -0.0886
                      }
                    }
                  }
                }
                JOINT RightHandPinky1
                {
                  OFFSET -7.9094 -0.601105 -3.4825
                  CHANNELS 3 Zrotation Xrotation Yrotation
                  JOINT RightHandPinky2
                  {
                    OFFSET -2.2874 -0.477005 -0.6314
                    CHANNELS 3 Zrotation Xrotation Yrotation
                    JOINT RightHandPinky3
                    {
                      OFFSET -1.6774 -0.349396 -0.4633
                      CHANNELS 3 Zrotation Xrotation Yrotation
                      End Site
                      {
                        OFFSET -1.4888 -0.4091 -0.3416
                      }
                    }
                  }
                }
                JOINT RightHandThumb1
                {
                  OFFSET -1.833 -1.38751 1.3896
                  CHANNELS 3 Zrotation Xrotation Yrotation
                  JOINT RightHandThumb2
                  {
                    OFFSET -3.41299 -1.12099 2.5732
                    CHANNELS 3 Zrotation Xrotation Yrotation
                    JOINT RightHandThumb3
                    {
                      OFFSET -2.24741 -0.804108 1.6192
                      CHANNELS 3 Zrotation Xrotation Yrotation
                      End Site
                      {
                        OFFSET -1.6527 -0.5689 1.1317
                      }
                    }
                  }
                }
              }
            }
          }
        }
      }
    }
  }
  JOINT RightUpLeg
  {
    OFFSET -9.1966 3.8861 -0.7581
    CHANNELS 3 Zrotation Xrotation Yrotation
    JOINT RightLeg
    {
      OFFSET -0.7359 -41.0265 0
      CHANNELS 3 Zrotation Xrotation Yrotation
      JOINT RightFoot
      {
        OFFSET 0 -40.2855 0
        CHANNELS 3 Zrotation Xrotation Yrotation
        JOINT RightToeBase
        {
          OFFSET 0 -5.6122 11.7359
          CHANNELS 3 Zrotation Xrotation Yrotation
          End Site
          {
            OFFSET 0 0 7.8731
          }
        }
      }
    }
  }
  JOINT LeftUpLeg
  {
    OFFSET 9.1965 3.8864 -0.7581
    CHANNELS 3 Zrotation Xrotation Yrotation
    JOINT LeftLeg
    {
      OFFSET 0.7359 -41.0268 0
      CHANNELS 3 Zrotation Xrotation Yrotation
      JOINT LeftFoot
      {
        OFFSET 0 -40.2855 0
        CHANNELS 3 Zrotation Xrotation Yrotation
        JOINT LeftToeBase
        {
          OFFSET 0 -5.6122 11.7359
          CHANNELS 3 Zrotation Xrotation Yrotation
          End Site
          {
            OFFSET 0 0 7.8731
          }
        }
      }
    }
  }
}
MOTION
Frames:	4
Frame Time:	0.0333333
2.6044 24.4559 28.4099 -5.52526e-015 12 180 -0.16462 6.287 -0.12787 -0.317923 12.5744 -0.239622 -0.317922 12.5744 -0.239622 -1.65955e-005 -1.93282 3.76508e-006 -1.42625e-008 -31.9175 -1.47057e-007 -23.2789 -4.00291 49.6866 -54.2054 -1.8367 -101.699 -10.3774 18.9667 -89.6602 46.7537 -53.3834 58.2156 1.59028e-015 -4.77083e-015 1.59028e-015 1.59028e-015 1.59028e-015 -0 3.18055e-015 1.59028e-015 -1.59028e-015 1.59028e-015 -4.77083e-015 1.59028e-015 -0.0145982 -9.1891e-005 5.30732e-006 4.96564e-031 -3.57812e-015 7.95139e-015 1.59028e-015 -4.77083e-015 1.59028e-015 -0.0187842 -0.00117896 6.03074e-005 3.18055e-015 -1.19271e-015 -4.77083e-015 1.59028e-015 -4.77083e-015 1.59028e-015 -0.0122936 -0.00324988 0.000671485 -1.59028e-015 -6.75868e-015 -1.59028e-015 1.59028e-015 -4.77083e-015 1.59028e-015 1.59028e-015 1.59028e-015 -0 3.18055e-015 1.59028e-015 -1.59028e-015 26.5212 -6.92604 -65.5587 51.0516 1.74709 104.337 9.33972 23.3983 101.153 -57.7806 -55.9175 -65.8101 1.80543e-006 -2.04165e-006 1.76526e-006 3.61087e-006 -4.08329e-006 3.53052e-006 1.80543e-006 -2.04165e-006 1.76526e-006 1.80543e-006 -2.04165e-006 1.76526e-006 0.014985 -0.000101893 3.88514e-006 1.80557e-006 -2.04142e-006 1.76553e-006 1.80543e-006 -2.04165e-006 1.76526e-006 0.019082 -0.00118896 -5.16864e-005 1.80563e-006 -2.04136e-006 1.76558e-006 1.80543e-006 -2.04165e-006 1.76526e-006 0.0122598 -0.00325561 -0.000675386 1.80561e-006 -2.04148e-006 1.76542e-006 1.80543e-006 -2.04165e-006 1.76526e-006 3.61087e-006 -4.08329e-006 3.53052e-006 1.80543e-006 -2.04165e-006 1.76526e-006 -8.96968 -5.20797 -17.5397 -160.937 59.6838 159.935 16.4409 35.5184 -16.8265 1.56717e-006 -6.68687e-008 -5.85062e-007 7.95416 -6.40239 17.4658 160.628 60.695 -159.741 -18.0278 37.1612 18.8819 -1.42095e-006 -1.51316e-007 9.76703e-007 
2.6044 24.4559 28.4099 -5.52526e-015 12 180 -0.164827 6.48528 -0.129455 -0.317883 12.9709 -0.242345 -0.317883 12.9709 -0.242345 -1.5538e-005 -2.86509 4.01275e-006 8.46801e-008 -29.8251 7.00991e-008 -22.909 -4.82439 49.4476 -54.2054 -1.8367 -101.699 -10.3774 18.9667 -89.6602 47.096 -53.6212 58.2732 1.86224e-006 2.03324e-006 1.74815e-006 3.70754e-007 7.53437e-006 1.40614e-006 1.86224e-006 2.03324e-006 1.74815e-006 1.86224e-006 2.03324e-006 1.74815e-006 -0.014587 -8.81207e-005 2.36799e-007 1.86237e-006 2.03302e-006 1.74841e-006 1.86224e-006 2.03324e-006 1.74815e-006 -0.0187918 -0.00117847 6.18921e-005 1.86242e-006 2.03296e-006 1.74847e-006 1.86224e-006 2.03324e-006 1.74815e-006 -0.0122664 -0.00323643 0.000676932 1.86241e-006 2.03307e-006 1.74831e-006 1.86224e-006 2.03324e-006 1.74815e-006 3.70754e-007 7.53437e-006 1.40614e-006 1.86224e-006 2.03324e-006 1.74815e-006 26.2045 -7.6787 -65.1639 51.0516 1.74709 104.337 9.33969 23.3983 101.153 -58.1738 -56.033 -65.9259 -1.59028e-015 -1.98785e-015 1.59028e-015 -8.43422e-007 -3.67986e-009 1.18823e-007 1.59028e-015 -1.59028e-015 -7.95139e-015 -1.59028e-015 -1.98785e-015 1.59028e-015 0.0149484 -9.52623e-005 4.87797e-007 -1.59028e-015 8.74653e-015 -1.59028e-015 -1.59028e-015 -1.98785e-015 1.59028e-015 0.0189879 -0.00118961 -6.23433e-005 8.41386e-007 3.78819e-009 -1.18826e-007 -1.59028e-015 -1.98785e-015 1.59028e-015 0.0122616 -0.00324315 -0.000679795 4.19321e-031 7.55382e-015 -3.18055e-015 -1.59028e-015 -1.98785e-015 1.59028e-015 -8.43422e-007 -3.67986e-009 1.18823e-007 1.59028e-015 -1.59028e-015 -7.95139e-015 -8.96968 -5.20797 -17.5397 -160.937 59.6838 159.935 16.4409 35.5184 -16.8265 1.56717e-006 -6.68687e-008 -5.85062e-007 7.95416 -6.40239 17.4658 160.628 60.695 -159.741 -18.0278 37.1612 18.8819 -1.42095e-006 -1.51316e-007 9.76703e-007 
2.6044 24.4559 28.4099 -5.52526e-015 12 180 -0.164974 6.68465 -0.131028 -0.317713 13.3696 -0.245051 -0.317713 13.3696 -0.245051 7.87909e-007 -3.79858 -4.0597e-007 7.04727e-008 -27.7249 2.2496e-007 -22.5419 -5.64796 49.2134 -54.2054 -1.83669 -101.699 -10.3774 18.9667 -89.6602 47.4407 -53.8588 58.3335 -2.55692e-006 -1.77827e-006 -1.66767e-006 -3.7266e-006 -4.05989e-006 -3.50392e-006 -1.8633e-006 -2.02994e-006 -1.75196e-006 -2.55692e-006 -1.77827e-006 -1.66767e-006 -0.0146031 -8.6819e-005 2.68369e-007 -1.86343e-006 -2.02972e-006 -1.75222e-006 -2.55692e-006 -1.77827e-006 -1.66767e-006 -0.0187428 -0.00118217 6.12533e-005 -1.86348e-006 -2.02967e-006 -1.75227e-006 -2.55692e-006 -1.77827e-006 -1.66767e-006 -0.0122976 -0.00325731 0.000676304 -1.86347e-006 -2.02977e-006 -1.75212e-006 -2.55692e-006 -1.77827e-006 -1.66767e-006 -3.7266e-006 -4.05989e-006 -3.50392e-006 -1.8633e-006 -2.02994e-006 -1.75196e-006 25.8923 -8.43399 -64.7723 51.0516 1.74709 104.337 9.3397 23.3983 101.153 -58.5684 -56.1482 -66.0434 1.59028e-015 6.36111e-015 1.59028e-015 3.18055e-015 6.75868e-015 3.18055e-015 1.59028e-015 5.1684e-015 -3.18055e-015 1.59028e-015 6.36111e-015 1.59028e-015 0.0149837 -9.05964e-005 -2.63733e-007 1.59028e-015 7.95139e-016 4.77083e-015 1.59028e-015 6.36111e-015 1.59028e-015 0.018985 -0.00119853 -6.15049e-005 -1.10348e-031 -1.98785e-015 -3.18055e-015 1.59028e-015 6.36111e-015 1.59028e-015 0.0122753 -0.00324841 -0.000667035 -2.20695e-032 -3.97569e-016 -3.18055e-015 1.59028e-015 6.36111e-015 1.59028e-015 3.18055e-015 6.75868e-015 3.18055e-015 1.59028e-015 5.1684e-015 -3.18055e-015 -8.96968 -5.20797 -17.5397 -160.937 59.6838 159.935 16.4409 35.5184 -16.8265 1.56717e-006 -6.68687e-008 -5.85062e-007 7.95416 -6.40239 17.4658 160.628 60.695 -159.741 -18.0278 37.1612 18.8819 -1.42095e-006 -1.51316e-007 9.76703e-007 
2.6044 24.4559 28.4099 -5.52526e-015 12 180 -0.165058 6.88487 -0.132585 -0.317411 13.7701 -0.247737 -0.317411 13.7701 -0.247737 4.52317e-007 -4.73204 4.00346e-007 -3.36656e-007 -25.6182 -1.79403e-007 -22.1773 -6.47352 48.984 -54.2054 -1.83669 -101.699 -10.3774 18.9667 -89.6602 47.7878 -54.0963 58.3966 3.18055e-015 0 3.18055e-015 1.59028e-015 1.11319e-014 -3.18055e-015 1.59028e-015 4.37326e-015 4.77083e-015 3.18055e-015 0 3.18055e-015 -0.014615 -8.69373e-005 -3.08839e-006 4.77083e-015 -7.95139e-015 -3.18055e-015 3.18055e-015 0 3.18055e-015 -0.0187296 -0.00117727 6.71066e-005 -7.95139e-015 -3.97569e-016 -6.36111e-015 3.18055e-015 0 3.18055e-015 -0.0122953 -0.00325648 0.000674002 1.59028e-015 1.19271e-015 -1.59028e-015 3.18055e-015 0 3.18055e-015 1.59028e-015 1.11319e-014 -3.18055e-015 1.59028e-015 4.37326e-015 4.77083e-015 25.5844 -9.19185 -64.3839 51.0516 1.74708 104.337 9.3397 23.3983 101.153 -58.9648 -56.2628 -66.1627 -3.18055e-015 6.75868e-015 -3.18055e-015 4.55823e-006 7.29664e-008 -1.73767e-006 8.03483e-007 -1.37596e-010 -1.10146e-007 -3.18055e-015 6.75868e-015 -3.18055e-015 0.0149763 -8.66863e-005 -1.68633e-006 -1.59028e-015 5.56597e-015 -0 -3.18055e-015 6.75868e-015 -3.18055e-015 0.019055 -0.00119645 -5.11633e-005 0 8.34896e-015 -0 -3.18055e-015 6.75868e-015 -3.18055e-015 0.0122688 -0.00324346 -0.000682383 -3.18055e-015 8.34896e-015 -4.77083e-015 -3.18055e-015 6.75868e-015 -3.18055e-015 4.55823e-006 7.29664e-008 -1.73767e-006 8.03483e-007 -1.37596e-010 -1.10146e-007 -8.96968 -5.20797 -17.5397 -160.937 59.6838 159.935 16.4409 35.5184 -16.8265 1.56717e-006 -6.68687e-008 -5.85062e-007 7.95416 -6.40239 17.4658 160.628 60.695 -159.741 -18.0278 37.1612 18.8819 -1.42095e-006 -1.51316e-007 9.76703e-007 
